<?xml version="1.0" encoding="utf-8"?>
<!-- Generator: Adobe Illustrator 21.1.0, SVG Export Plug-In . SVG Version: 6.00 Build 0)  -->
<svg version="1.1" id="Capa_1" xmlns="http://www.w3.org/2000/svg" xmlns:xlink="http://www.w3.org/1999/xlink" x="0px" y="0px"
	 viewBox="0 0 166.4 169.7" style="enable-background:new 0 0 166.4 169.7;" xml:space="preserve">
<style type="text/css">
	.st0{fill:none;stroke:url(#SVGID_1_);stroke-width:0.97;stroke-miterlimit:10;}
	.st1{fill:url(#SVGID_2_);}
	.st2{fill:url(#SVGID_3_);stroke:#F1F2F2;stroke-width:1.13;stroke-miterlimit:10;}
	.st3{fill:#FFFFFF;}
	.st4{font-family:'MyriadPro-Regular';}
	.st5{font-size:46.9392px;}
	.st6{font-size:31.6251px;}
</style>
<title>Recurso 7</title>
<g id="Capa_2">
	<g id="OBJECTS">
		
			<radialGradient id="SVGID_1_" cx="40.3868" cy="665.3173" r="81.104" gradientTransform="matrix(1.03 0 0 1.04 41.37 -607.08)" gradientUnits="userSpaceOnUse">
			<stop  offset="0" style="stop-color:#FD0100"/>
			<stop  offset="0.31" style="stop-color:#EC0102"/>
			<stop  offset="0.9" style="stop-color:#C00009"/>
			<stop  offset="1" style="stop-color:#B8000A"/>
		</radialGradient>
		<path class="st0" d="M164.6,90.5l-2.4,4.8c-1.1,2.3-1.6,4.8-1.2,7.3l0.7,5.2c0.5,4-0.8,7.9-3.7,10.7l-3.8,3.7
			c-1.8,1.8-3.1,4-3.6,6.5l-1.1,5.2c-0.8,3.9-3.5,7.2-7.1,8.9l-4.8,2.2c-2.3,1-4.2,2.7-5.5,4.9l-2.8,4.5c-2.1,3.5-5.8,5.7-9.8,6
			l-5.3,0.4c-2.5,0.2-4.8,1.1-6.8,2.6l-4.2,3.2c-3.2,2.5-7.4,3.3-11.3,2.1l-5.1-1.5c-2.4-0.7-4.9-0.7-7.3,0l-5.1,1.5
			c-3.9,1.2-8.1,0.4-11.3-2.1l-4.2-3.3c-2-1.5-4.3-2.4-6.8-2.6l-5.3-0.4c-4-0.3-7.7-2.5-9.8-6l-2.8-4.5c-1.3-2.1-3.2-3.8-5.5-4.9
			l-4.9-2.2c-3.6-1.7-6.3-5-7.1-8.9l-1.1-5.2c-0.5-2.5-1.8-4.7-3.6-6.5l-3.8-3.7c-2.9-2.8-4.3-6.8-3.7-10.7l0.7-5.2
			c0.3-2.5-0.1-5.1-1.2-7.3l-2.4-4.8C0,87,0,82.8,1.8,79.2l2.4-4.8c1.1-2.3,1.6-4.8,1.2-7.3l-0.7-5.2c-0.5-4,0.8-8,3.7-10.8l3.8-3.7
			c1.8-1.8,3.1-4,3.6-6.5l1.1-5.2c0.8-3.9,3.5-7.2,7.1-8.9l4.8-2.2c2.3-1,4.2-2.7,5.5-4.9l2.8-4.5c2.1-3.5,5.8-5.7,9.8-6l5.3-0.4
			c2.5-0.1,4.8-1,6.8-2.5l4.2-3.2c3.2-2.5,7.4-3.3,11.3-2.1l5.1,1.5c2.4,0.7,4.9,0.7,7.3,0l5-1.5c3.9-1.2,8.1-0.4,11.3,2.1l4.2,3.2
			c2,1.5,4.3,2.4,6.8,2.6l5.3,0.4c4,0.3,7.7,2.5,9.8,6l2.7,4.5c1.3,2.1,3.2,3.8,5.5,4.9l4.8,2.2c3.7,1.7,6.3,5,7.1,8.9l1.1,5.2
			c0.5,2.5,1.8,4.7,3.6,6.5l3.8,3.7c2.9,2.8,4.3,6.8,3.7,10.7l-0.6,5.2c-0.3,2.5,0.1,5.1,1.2,7.3l2.4,4.8
			C166.4,82.8,166.4,87,164.6,90.5z"/>
		<g>
			
				<radialGradient id="SVGID_2_" cx="-418.5088" cy="569.2462" r="55.129" gradientTransform="matrix(1.48 0 0 1.55 702.58 -798.0099)" gradientUnits="userSpaceOnUse">
				<stop  offset="0" style="stop-color:#FD0100"/>
				<stop  offset="0.33" style="stop-color:#EA0103"/>
				<stop  offset="0.97" style="stop-color:#BA000A"/>
				<stop  offset="1" style="stop-color:#B8000A"/>
			</radialGradient>
			<path class="st1" d="M164.6,90.5l-2.4,4.8c-1.1,2.3-1.6,4.8-1.2,7.3l0.7,5.2c0.5,4-0.8,7.9-3.7,10.7l-3.8,3.7
				c-1.8,1.8-3.1,4-3.6,6.5l-1.1,5.2c-0.8,3.9-3.5,7.2-7.1,8.9l-4.8,2.2c-2.3,1-4.2,2.7-5.5,4.9l-2.8,4.5c-2.1,3.5-5.8,5.7-9.8,6
				l-5.3,0.4c-2.5,0.2-4.8,1.1-6.8,2.6l-4.2,3.2c-3.2,2.5-7.4,3.3-11.3,2.1l-5.1-1.5c-2.4-0.7-4.9-0.7-7.3,0l-5.1,1.5
				c-3.9,1.2-8.1,0.4-11.3-2.1l-4.2-3.3c-2-1.5-4.3-2.4-6.8-2.6l-5.3-0.4c-4-0.3-7.7-2.5-9.8-6l-2.8-4.5c-1.3-2.1-3.2-3.8-5.5-4.9
				l-4.9-2.2c-3.6-1.7-6.3-5-7.1-8.9l-1.1-5.2c-0.5-2.5-1.8-4.7-3.6-6.5l-3.8-3.7c-2.9-2.8-4.3-6.8-3.7-10.7l0.7-5.2
				c0.3-2.5-0.1-5.1-1.2-7.3l-2.4-4.8C0,87,0,82.8,1.8,79.2l2.4-4.8c1.1-2.3,1.6-4.8,1.2-7.3l-0.7-5.2c-0.5-4,0.8-8,3.7-10.8
				l3.8-3.7c1.8-1.8,3.1-4,3.6-6.5l1.1-5.2c0.8-3.9,3.5-7.2,7.1-8.9l4.8-2.2c2.3-1,4.2-2.7,5.5-4.9l2.8-4.5c2.1-3.5,5.8-5.7,9.8-6
				l5.3-0.4c2.5-0.1,4.8-1,6.8-2.5l4.2-3.2c3.2-2.5,7.4-3.3,11.3-2.1l5.1,1.5c2.4,0.7,4.9,0.7,7.3,0l5-1.5c3.9-1.2,8.1-0.4,11.3,2.1
				l4.2,3.2c2,1.5,4.3,2.4,6.8,2.6l5.3,0.4c4,0.3,7.7,2.5,9.8,6l2.7,4.5c1.3,2.1,3.2,3.8,5.5,4.9l4.8,2.2c3.7,1.7,6.3,5,7.1,8.9
				l1.1,5.2c0.5,2.5,1.8,4.7,3.6,6.5l3.8,3.7c2.9,2.8,4.3,6.8,3.7,10.7l-0.6,5.2c-0.3,2.5,0.1,5.1,1.2,7.3l2.4,4.8
				C166.4,82.8,166.4,87,164.6,90.5z"/>
			<g>
				
					<radialGradient id="SVGID_3_" cx="83.2" cy="680.85" r="76.1779" gradientTransform="matrix(1 0 0 1 0 -596)" gradientUnits="userSpaceOnUse">
					<stop  offset="0" style="stop-color:#DC000C"/>
					<stop  offset="0.46" style="stop-color:#DA000C"/>
					<stop  offset="0.63" style="stop-color:#D3000C"/>
					<stop  offset="0.74" style="stop-color:#C8000B"/>
					<stop  offset="0.84" style="stop-color:#B7000A"/>
					<stop  offset="0.92" style="stop-color:#A10009"/>
					<stop  offset="0.99" style="stop-color:#860007"/>
					<stop  offset="1" style="stop-color:#830007"/>
				</radialGradient>
				<circle class="st2" cx="83.2" cy="84.8" r="68.9"/>
				<text transform="matrix(1 0 0 1 38.9992 82.1107)" class="st3 st4 st5">30%</text>
				<text transform="matrix(1 0 0 1 54.001 119.0938)" class="st3 st4 st6">OFF</text>
			</g>
		</g>
	</g>
</g>
</svg>
