<svg xmlns="http://www.w3.org/2000/svg" viewBox="0 0 116.1 116.1"><defs><style>.cls-1{fill:#e42220;}.cls-2{fill:#fff;}</style></defs><title>Recurso 1</title><g id="Capa_2" data-name="Capa 2"><g id="Capa_1-2" data-name="Capa 1"><rect class="cls-1" x="6.5" y="6.5" width="103" height="103" rx="46" ry="46"/><path class="cls-1" d="M58,116.1A58.05,58.05,0,1,0,0,58,58.15,58.15,0,0,0,58,116.1Zm0-108A49.9,49.9,0,1,1,8.1,58,50,50,0,0,1,58,8.1Z"/><path class="cls-2" d="M63.5,87a4,4,0,0,0,2.9,1.2A4.18,4.18,0,0,0,69.3,87a4.1,4.1,0,0,0,0-5.8L45.8,57.7,69.3,34.2a4.1,4.1,0,0,0-5.8-5.8L37.1,54.8a4.1,4.1,0,0,0,0,5.8Z"/></g></g></svg>