<?xml version="1.0" encoding="utf-8"?>
<!-- Generator: Adobe Illustrator 21.1.0, SVG Export Plug-In . SVG Version: 6.00 Build 0)  -->
<svg version="1.1" id="Capa_1" xmlns="http://www.w3.org/2000/svg" xmlns:xlink="http://www.w3.org/1999/xlink" x="0px" y="0px"
	 viewBox="0 0 35.7 39.5" style="enable-background:new 0 0 35.7 39.5;" xml:space="preserve">
<style type="text/css">
	.st0{clip-path:url(#SVGID_2_);}
</style>
<title>Recurso 10</title>
<g id="Capa_2">
	<g id="Capa_1-2">
		<g>
			<g>
				<defs>
					<rect id="SVGID_1_" width="35.7" height="39.6"/>
				</defs>
				<clipPath id="SVGID_2_">
					<use xlink:href="#SVGID_1_"  style="overflow:visible;"/>
				</clipPath>
				<g class="st0">
					<path d="M35.7,31.2c0.1,0.6-0.1,1.2-0.5,1.7l-5,5.5c-0.2,0.3-0.5,0.5-0.9,0.7c-0.3,0.2-0.7,0.3-1.1,0.4H28h-0.5
						c-0.8,0-1.6-0.1-2.3-0.3c-1.4-0.3-2.7-0.7-3.9-1.3c-1.9-0.9-3.6-2-5.3-3.2c-2.3-1.7-4.4-3.7-6.3-5.9c-1.6-1.7-3.1-3.6-4.4-5.5
						c-1-1.6-2-3.2-2.8-4.9c-0.6-1.3-1.2-2.6-1.6-4c-0.3-1-0.6-2.1-0.7-3.1C0,10.6,0,9.9,0,9.2c0-0.5,0-0.8,0-0.8
						C0.1,8,0.2,7.6,0.4,7.2c0.1-0.4,0.4-0.7,0.6-1l5-5.6C6.3,0.2,6.8,0,7.3,0c0.3,0,0.6,0.1,0.9,0.3c0.3,0.2,0.5,0.5,0.6,0.8l4,8.5
						c0.2,0.4,0.3,1,0.2,1.5s-0.3,1-0.6,1.3l-1.9,2.1c-0.1,0.1-0.1,0.2-0.1,0.3s-0.1,0.2-0.1,0.3c0.1,0.7,0.4,1.4,0.7,2
						c0.4,0.9,0.9,1.7,1.4,2.5c0.8,1.2,1.7,2.3,2.7,3.3c0.9,1.1,1.9,2.1,3,3c0.7,0.6,1.4,1.1,2.2,1.6c0.4,0.3,0.9,0.5,1.4,0.6
						l0.5,0.1c0.1,0,0.2,0,0.3-0.1c0.1,0,0.2-0.1,0.3-0.1l2.1-2.4c0.4-0.4,1-0.7,1.6-0.7c0.4,0,0.7,0.1,1,0.3l0,0l7.3,4.8
						C35.1,30.1,35.5,30.6,35.7,31.2L35.7,31.2z"/>
				</g>
			</g>
		</g>
	</g>
</g>
</svg>
