<?xml version="1.0" encoding="utf-8"?>
<!-- Generator: Adobe Illustrator 16.0.3, SVG Export Plug-In . SVG Version: 6.00 Build 0)  -->
<!DOCTYPE svg PUBLIC "-//W3C//DTD SVG 1.1//EN" "http://www.w3.org/Graphics/SVG/1.1/DTD/svg11.dtd">
<svg version="1.1" id="Capa_1" xmlns="http://www.w3.org/2000/svg" xmlns:xlink="http://www.w3.org/1999/xlink" x="0px" y="0px"
	 width="1343px" height="2000px" viewBox="0 0 1343 2000" enable-background="new 0 0 1343 2000" xml:space="preserve">
<g>
	<path fill="#FFFFFF" d="M1314.99,585.14c-24.156-29.432-60.808-45.813-98.847-45.813H390.665c-23.601,0-46.091,6.664-65.527,18.603
		l-42.204-147.437c-6.941-24.156-28.876-40.815-53.865-40.815h-64.139H42.482C19.158,369.677,0,388.558,0,412.158v4.442
		c0,23.323,18.881,42.482,42.482,42.482h160.486l81.909,289.598l112.729,399.55c-64.139,16.104-111.618,74.135-111.618,142.994
		c0,78.022,60.807,142.161,137.719,147.159c-6.387,18.325-9.44,38.595-7.774,59.419c5.553,70.525,63.028,127.445,133.554,132.165
		c84.13,5.831,154.378-61.085,154.378-143.827c0-16.659-2.777-32.485-8.053-47.479h168.816c-6.941,19.714-9.718,41.649-7.219,64.14
		c7.774,68.304,64.139,122.169,132.998,127.167c84.131,5.831,154.655-60.807,154.655-143.827
		c0-80.243-66.638-144.382-146.604-144.382H434.535c-27.488,0-50.812-21.38-51.922-48.591c-1.11-28.876,21.935-52.477,50.534-52.477
		h84.686h458.969h129.111c57.198,0,107.176-39.15,121.06-94.682l112.174-451.473C1348.864,655.665,1339.979,615.96,1314.99,585.14z
		 M1000.958,1438.384c26.101,0,47.479,21.38,47.479,47.479s-21.379,47.479-47.479,47.479c-26.1,0-47.479-21.38-47.479-47.479
		S974.581,1438.384,1000.958,1438.384z M559.759,1438.384c26.101,0,47.48,21.38,47.48,47.479s-21.38,47.479-47.48,47.479
		c-26.1,0-47.479-21.38-47.479-47.479S533.382,1438.384,559.759,1438.384z M385.39,748.125l-21.657-76.355
		c-3.332-11.662,1.389-20.27,4.721-24.435c3.054-4.165,10.272-11.106,22.212-11.106h90.517l24.712,112.174H385.39V748.125z
		 M412.601,844.75h114.395l22.769,103.845H441.755L412.601,844.75z M517.833,1143.511c-12.495,0-23.602-8.33-26.933-20.547
		l-21.936-77.744h101.9l21.658,98.013h-74.69V1143.511z M759.673,1143.511h-68.304l-21.657-98.014h89.684v98.014H759.673z
		 M759.673,948.595H648.61L625.842,844.75h133.831V948.595z M759.673,748.125H604.74l-24.712-112.174h179.645V748.125z
		 M932.932,1143.511h-76.355v-98.014h96.902L932.932,1143.511z M974.025,948.595H856.576V844.75h139.385L974.025,948.595z
		 M856.576,748.125V635.951h183.254l-23.601,112.174H856.576z M1133.401,1122.408c-3.054,12.495-14.16,21.38-27.21,21.38h-74.413
		l20.824-98.014h99.957L1133.401,1122.408z M1176.438,948.595h-103.566l21.935-103.845h107.454L1176.438,948.595z M1245.298,670.658
		l-19.158,77.189h-111.063l23.601-112.174h79.41c11.939,0,18.881,6.663,21.936,10.828
		C1243.354,650.667,1248.352,659.274,1245.298,670.658z"/>
</g>
</svg>
