<?xml version="1.0" encoding="utf-8"?>
<!-- Generator: Adobe Illustrator 21.1.0, SVG Export Plug-In . SVG Version: 6.00 Build 0)  -->
<svg version="1.1" id="Capa_1" xmlns="http://www.w3.org/2000/svg" xmlns:xlink="http://www.w3.org/1999/xlink" x="0px" y="0px"
	 viewBox="0 0 26.9 35.6" style="enable-background:new 0 0 26.9 35.6;" xml:space="preserve">
<title>Recurso 9</title>
<g id="Capa_2">
	<g id="Capa_1-2">
		<path d="M13.4,0C6,0,0,6,0,13.4l0,0c0,3.9,1.9,7.4,3.8,10.6c2.3,4,5.1,7.7,8.3,11c0.7,0.7,1.8,0.7,2.5,0l0,0
			c2.8-2.8,5.3-5.9,7.4-9.3c2.3-3.6,4.7-7.9,4.7-12.3C26.8,6,20.8,0,13.4,0z M13.4,21.2c-4.5,0-8.1-3.6-8.1-8.1S8.9,5,13.4,5
			s8.1,3.6,8.1,8.1C21.5,17.5,17.9,21.1,13.4,21.2L13.4,21.2z"/>
	</g>
</g>
</svg>
