<svg xmlns="http://www.w3.org/2000/svg" xmlns:xlink="http://www.w3.org/1999/xlink" viewBox="0 0 183.49 187.71"><defs><style>.cls-1{fill:url(#linear-gradient);}.cls-2{fill:url(#linear-gradient-2);}.cls-3{fill:url(#linear-gradient-3);}.cls-4{font-size:35.67px;fill:#fff;font-family:MyriadPro-Regular, Myriad Pro;}.cls-5{letter-spacing:0.01em;}.cls-6{letter-spacing:0em;}</style><linearGradient id="linear-gradient" x1="12.81" y1="10.52" x2="57.74" y2="8.7" gradientUnits="userSpaceOnUse"><stop offset="0" stop-color="#52010d"/><stop offset="0.11" stop-color="#6a010d"/><stop offset="0.28" stop-color="#8e010d"/><stop offset="0.46" stop-color="#aa000c"/><stop offset="0.64" stop-color="#be000c"/><stop offset="0.82" stop-color="#ca000c"/><stop offset="1" stop-color="#ce000c"/></linearGradient><linearGradient id="linear-gradient-2" x1="172.78" y1="168.6" x2="173.7" y2="93.28" gradientUnits="userSpaceOnUse"><stop offset="0" stop-color="#52010d"/><stop offset="0.05" stop-color="#5b010d"/><stop offset="0.25" stop-color="#84010d"/><stop offset="0.46" stop-color="#a4000c"/><stop offset="0.66" stop-color="#bb000c"/><stop offset="0.84" stop-color="#c9000c"/><stop offset="1" stop-color="#ce000c"/></linearGradient><linearGradient id="linear-gradient-3" x1="200" y1="164.55" x2="21.07" y2="-14.38" gradientUnits="userSpaceOnUse"><stop offset="0" stop-color="#52010d"/><stop offset="0.01" stop-color="#58010d"/><stop offset="0.04" stop-color="#77010d"/><stop offset="0.08" stop-color="#93000c"/><stop offset="0.12" stop-color="#a9000c"/><stop offset="0.17" stop-color="#ba000c"/><stop offset="0.23" stop-color="#c5000c"/><stop offset="0.32" stop-color="#cc000c"/><stop offset="0.56" stop-color="#ce000c"/><stop offset="0.75" stop-color="#cc000c"/><stop offset="0.82" stop-color="#c5000c"/><stop offset="0.87" stop-color="#ba000c"/><stop offset="0.91" stop-color="#a9000c"/><stop offset="0.94" stop-color="#93000c"/><stop offset="0.97" stop-color="#77010d"/><stop offset="1" stop-color="#58010d"/><stop offset="1" stop-color="#52010d"/></linearGradient></defs><title>Recurso 3</title><g id="Capa_2" data-name="Capa 2"><g id="OBJECTS"><polygon class="cls-1" points="3.64 3.3 0 18.62 84.28 8.66 3.64 3.3"/><polygon class="cls-2" points="180.6 184.01 165.53 187.71 165.53 105.73 180.6 184.01"/><path class="cls-3" d="M5.87,2.1c-2.37.08-3,1.53-1.3,3.23L178.26,183.08c1.66,1.7,3.08,1.15,3.15-1.23L183.48,114a11.61,11.61,0,0,0-2.9-7.4L78.65,2.94A11.3,11.3,0,0,0,71.31,0Z"/><text class="cls-4" transform="translate(58.88 38.52) rotate(46.4)">NU<tspan class="cls-5" x="46.55" y="0">E</tspan><tspan class="cls-6" x="64.42" y="0">VO!!</tspan></text></g></g></svg>