<?xml version="1.0" encoding="utf-8"?>
<!-- Generator: Adobe Illustrator 16.0.3, SVG Export Plug-In . SVG Version: 6.00 Build 0)  -->
<!DOCTYPE svg PUBLIC "-//W3C//DTD SVG 1.1//EN" "http://www.w3.org/Graphics/SVG/1.1/DTD/svg11.dtd">
<svg version="1.1" id="Capa_1" xmlns="http://www.w3.org/2000/svg" xmlns:xlink="http://www.w3.org/1999/xlink" x="0px" y="0px"
	 width="595.279px" height="841.89px" viewBox="0 0 595.279 841.89" enable-background="new 0 0 595.279 841.89"
	 xml:space="preserve">
<title>Recurso 1</title>
<g id="Capa_2">
	<g id="OBJECTS">
		<path fill="#D41116" d="M0,467.576c27.971,5.291,55.941-5.307,83.88,0v-88.275c-27.938-5.291-55.909,5.306-83.88,0
			c5.003,15.664,9.989,30.815,14.992,45.632C9.99,439.542,5.003,453.814,0,467.576z"/>
		<path fill="#D41116" d="M595.28,376.807c-27.874-5.226-55.909,5.291-83.815,0v88.276c27.954,5.289,55.941-5.307,83.88,0
			c-5.003-15.664-9.989-30.816-14.992-45.633C585.29,404.842,590.293,390.569,595.28,376.807z"/>
		<path fill="#D41116" d="M520.399,474.578c-149.012-12.867-298.023,12.865-447.035,0v-107.28
			c149.012,12.882,298.023-12.867,447.035,0V474.578z"/>
	</g>
</g>
</svg>
