<svg xmlns="http://www.w3.org/2000/svg" viewBox="0 0 116.2 116.2"><defs><style>.cls-1{fill:#e42220;}.cls-2{fill:#fff;}</style></defs><title>Recurso 3</title><g id="Capa_2" data-name="Capa 2"><g id="Capa_1-2" data-name="Capa 1"><rect class="cls-1" x="2.6" y="3.6" width="110" height="110" rx="55" ry="55"/><path class="cls-1" d="M58.1,116.2A58.1,58.1,0,1,0,0,58.1,58.15,58.15,0,0,0,58.1,116.2Zm0-108A49.9,49.9,0,1,1,8.2,58.1,50,50,0,0,1,58.1,8.2Z"/><path class="cls-2" d="M44.7,87.1a4,4,0,0,0,2.9,1.2,4.18,4.18,0,0,0,2.9-1.2L76.9,60.7a4.1,4.1,0,0,0,0-5.8L50.5,28.5a4.1,4.1,0,1,0-5.8,5.8L68.2,57.8,44.7,81.3A4.1,4.1,0,0,0,44.7,87.1Z"/></g></g></svg>